<?xml version="1.0" encoding="UTF-8"?>
<!-- Generated by Pixelmator Pro 3.7 -->
<svg width="800" height="800" viewBox="0 0 800 800" xmlns="http://www.w3.org/2000/svg">
    <path id="Path" fill="#39a8e6" stroke="none" d="M 300.287506 549.993774 L 328.625 521.653137 L 278.346863 471.375 L 250.009369 499.712524 C 238.690613 493.025024 226.382797 487.832825 213.332825 484.475006 L 213.332825 444.442169 L 142.225006 444.442169 L 142.226563 484.475006 C 129.174988 487.837494 116.868744 493.02655 105.550003 499.71405 L 77.209381 471.373413 L 26.93125 521.65625 L 55.273438 549.993774 C 48.585938 561.3125 43.393749 573.6203 40.037502 586.671875 L 0.001563 586.671875 L 0.001563 657.77655 L 40.039063 657.775024 C 43.396873 670.826599 48.585938 683.131287 55.273438 694.451538 L 26.932812 722.792175 L 77.210938 773.070313 L 105.553123 744.729736 C 116.870308 751.417236 129.178131 756.607788 142.225006 759.964111 L 142.226563 800 L 213.329697 800 L 213.329697 759.964111 C 226.381256 756.606262 238.687485 751.414063 250.006241 744.728149 L 278.34845 773.068787 L 328.626556 722.790649 L 300.28595 694.453125 C 306.973419 683.135925 312.165619 670.826599 315.521881 657.77655 L 355.557831 657.773438 L 355.557831 586.671875 L 315.523438 586.671875 C 312.167206 573.6203 306.976563 561.3125 300.287506 549.993774 Z M 177.78125 681.481262 C 145.051559 681.481262 118.520309 654.950012 118.520309 622.220337 C 118.520309 589.490601 145.051559 562.959351 177.78125 562.959351 C 210.509369 562.959351 237.040619 589.490601 237.040619 622.220337 C 237.040619 654.950012 210.509369 681.481262 177.78125 681.481262 Z"/>
    <path id="path1" fill="#49647f" stroke="none" d="M 355.557831 657.773438 L 355.557831 586.671875 L 315.523438 586.671875 C 312.165619 573.6203 306.973419 561.314087 300.287506 549.993774 L 328.625 521.653137 L 278.346863 471.375 L 250.009369 499.712524 C 238.690613 493.025024 226.382797 487.832825 213.332825 484.475006 L 213.332825 444.442169 L 177.776566 444.442169 L 177.776566 562.957825 C 177.778122 562.957825 177.778122 562.957825 177.779694 562.957825 C 210.507828 562.957825 237.039063 589.489075 237.039063 622.21875 C 237.039063 654.948425 210.507828 681.479675 177.779694 681.479675 C 177.778122 681.479675 177.778122 681.479675 177.776566 681.479675 L 177.776566 800 L 213.329697 800 L 213.329697 759.964111 C 226.381256 756.606262 238.687485 751.414063 250.006241 744.728149 L 278.34845 773.068787 L 328.626556 722.790649 L 300.28595 694.453125 C 306.973419 683.135925 312.165619 670.826599 315.521881 657.77655 L 355.557831 657.773438 Z"/>
    <path id="path2" fill="#9cdbf4" stroke="none" d="M 799.996826 319.9953 L 799.998413 213.329712 L 739.951538 213.328125 C 734.912476 193.756226 727.15625 175.279663 717.125 158.303101 L 759.607788 115.820313 L 684.185913 40.395325 L 641.701538 82.878113 C 624.725037 72.845337 606.246826 65.08905 586.673462 60.051575 L 586.673462 0 L 480.006256 0 L 480.006256 60.048462 C 460.4328 65.085938 441.956238 72.845337 424.981262 82.876587 L 382.492188 40.390625 L 307.065643 115.815613 L 349.551544 158.299988 C 339.518768 175.27655 331.760925 193.753113 326.723419 213.326599 L 266.674988 213.326599 L 266.674988 319.993744 L 326.721893 319.993744 C 331.757813 339.5672 339.517181 358.045319 349.548431 375.021881 L 307.064056 417.5047 L 382.490631 492.931274 L 424.97345 450.448425 C 441.949982 460.481262 460.426575 468.239075 480.000031 473.276581 L 480.000031 533.321899 L 586.667175 533.321899 L 586.667175 473.278137 C 606.242188 468.242157 624.720337 460.481262 641.696899 450.449982 L 684.179688 492.9328 L 759.606262 417.507782 L 717.123474 375.025024 C 727.15625 358.048431 734.914063 339.570313 739.951538 319.993744 L 799.996826 319.9953 L 799.996826 319.9953 Z M 533.337524 355.554688 C 484.2453 355.554688 444.446899 315.756256 444.446899 266.664063 C 444.446899 217.571899 484.2453 177.773438 533.337524 177.773438 C 582.429688 177.773438 622.228149 217.571899 622.228149 266.664063 C 622.228149 315.756256 582.429688 355.554688 533.337524 355.554688 Z"/>
    <path id="path3" fill="#39a8e6" stroke="none" d="M 799.996826 319.9953 L 799.998413 213.329712 L 739.951538 213.328125 C 734.912476 193.756226 727.15625 175.279663 717.125 158.303101 L 759.607788 115.820313 L 684.185913 40.395325 L 641.701538 82.878113 C 624.725037 72.845337 606.246826 65.08905 586.673462 60.051575 L 586.673462 0 L 533.33905 0 L 533.33905 177.775024 C 582.431274 177.775024 622.229675 217.573425 622.229675 266.665649 C 622.229675 315.757813 582.431274 355.556244 533.33905 355.556244 L 533.33905 533.325012 L 586.668701 533.325012 L 586.668701 473.28125 C 606.243774 468.2453 624.721863 460.484375 641.698486 450.453125 L 684.181274 492.935944 L 759.607788 417.510925 L 717.125 375.028137 C 727.157837 358.051575 734.915649 339.573425 739.953125 319.996887 L 799.996826 319.9953 L 799.996826 319.9953 Z"/>
</svg>
